<?xml version="1.0" encoding="UTF-8" standalone="no"?>
<!-- Created with Inkscape (http://www.inkscape.org/) -->

<svg
   xmlns:dc="http://purl.org/dc/elements/1.1/"
   xmlns:cc="http://creativecommons.org/ns#"
   xmlns:rdf="http://www.w3.org/1999/02/22-rdf-syntax-ns#"
   xmlns:svg="http://www.w3.org/2000/svg"
   xmlns="http://www.w3.org/2000/svg"
   xmlns:sodipodi="http://sodipodi.sourceforge.net/DTD/sodipodi-0.dtd"
   xmlns:inkscape="http://www.inkscape.org/namespaces/inkscape"
   id="svg3355"
   version="1.1"
   inkscape:version="0.91 r13725"
   xml:space="preserve"
   width="67.385559"
   height="69.012215"
   viewBox="0 0 67.385559 69.012215"
   sodipodi:docname="qcodes_sticker.ai.svg"
   inkscape:export-filename="/home/unga/Pictures/qcodes_logo.ai.png"
   inkscape:export-xdpi="90"
   inkscape:export-ydpi="90"><title
     id="title3627">QCoDeS sticker</title><metadata
     id="metadata3361"><rdf:RDF><cc:Work
         rdf:about=""><dc:format>image/svg+xml</dc:format><dc:type
           rdf:resource="http://purl.org/dc/dcmitype/StillImage" /><dc:title>QCoDeS sticker</dc:title><cc:license
           rdf:resource="http://scripts.sil.org/OFL" /><dc:creator><cc:Agent><dc:title>Guen Prawiroatmodjo</dc:title></cc:Agent></dc:creator></cc:Work><cc:License
         rdf:about="http://scripts.sil.org/OFL"><cc:permits
           rdf:resource="http://scripts.sil.org/pub/OFL/Reproduction" /><cc:permits
           rdf:resource="http://scripts.sil.org/pub/OFL/Distribution" /><cc:permits
           rdf:resource="http://scripts.sil.org/pub/OFL/Embedding" /><cc:permits
           rdf:resource="http://scripts.sil.org/pub/OFL/DerivativeWorks" /><cc:requires
           rdf:resource="http://scripts.sil.org/pub/OFL/Notice" /><cc:requires
           rdf:resource="http://scripts.sil.org/pub/OFL/Attribution" /><cc:requires
           rdf:resource="http://scripts.sil.org/pub/OFL/ShareAlike" /><cc:requires
           rdf:resource="http://scripts.sil.org/pub/OFL/DerivativeRenaming" /><cc:requires
           rdf:resource="http://scripts.sil.org/pub/OFL/BundlingWhenSelling" /></cc:License></rdf:RDF></metadata><defs
     id="defs3359"><clipPath
       clipPathUnits="userSpaceOnUse"
       id="clipPath3369"><path
         d="m 0,56.034 174.138,0 L 174.138,0 0,0 0,56.034 Z"
         id="path3371"
         inkscape:connector-curvature="0" /></clipPath></defs><sodipodi:namedview
     pagecolor="#ffffff"
     bordercolor="#666666"
     borderopacity="1"
     objecttolerance="10"
     gridtolerance="10"
     guidetolerance="10"
     inkscape:pageopacity="0"
     inkscape:pageshadow="2"
     inkscape:window-width="3440"
     inkscape:window-height="1440"
     id="namedview3357"
     showgrid="false"
     inkscape:zoom="14.861776"
     inkscape:cx="29.418257"
     inkscape:cy="36.083423"
     inkscape:window-x="0"
     inkscape:window-y="0"
     inkscape:window-maximized="0"
     inkscape:current-layer="g3363"
     showborder="true"
     fit-margin-top="10"
     fit-margin-left="10"
     fit-margin-right="10"
     fit-margin-bottom="10"
     units="px" /><g
     id="g3363"
     inkscape:groupmode="layer"
     inkscape:label="qcodes_logo"
     transform="matrix(1.25,0,0,-1.25,-2.7294246,70.641641)"><g
       id="g3365"
       transform="translate(0.32297618,1.3457342)"><g
         id="g3367"
         clip-path="url(#clipPath3369)"><g
           id="g3373"
           transform="translate(28.2241,38.9355)"><path
             d="m 0,0 c -0.898,-3.543 -4.5,-5.686 -8.041,-4.786 -3.541,0.899 -5.684,4.499 -4.785,8.041 0.898,3.542 4.498,5.683 8.04,4.784 C -1.244,7.142 0.898,3.541 0,0"
             style="fill:#4300d0;fill-opacity:1;fill-rule:nonzero;stroke:none"
             id="path3375"
             inkscape:connector-curvature="0" /></g><g
           id="g3377"
           transform="translate(19.939,45.5039)"><path
             d="m 0,0 c -1.612,-0.611 -2.826,-1.973 -3.25,-3.642 -0.716,-2.824 0.999,-5.704 3.822,-6.421 1.059,-0.269 2.156,-0.207 3.172,0.179 1.611,0.613 2.826,1.975 3.25,3.643 0.346,1.367 0.14,2.789 -0.581,4.002 C 5.69,-1.027 4.54,-0.167 3.172,0.18 2.113,0.447 1.016,0.387 0,0 m 4.69,-12.374 c -1.531,-0.582 -3.181,-0.677 -4.773,-0.272 -4.249,1.078 -6.828,5.412 -5.75,9.661 0.637,2.509 2.464,4.557 4.887,5.477 C 0.585,3.074 2.235,3.166 3.826,2.763 5.885,2.241 7.617,0.948 8.703,-0.876 9.788,-2.7 10.099,-4.839 9.577,-6.896 8.94,-9.406 7.113,-11.452 4.69,-12.374"
             style="fill:#303030;fill-opacity:1;fill-rule:nonzero;stroke:none"
             id="path3379"
             inkscape:connector-curvature="0" /></g><g
           id="g3381"
           transform="translate(46.5527,24.1172)"><path
             d="m 0,0 c -0.899,-3.542 -4.499,-5.685 -8.04,-4.785 -3.543,0.898 -5.684,4.498 -4.787,8.04 0.901,3.544 4.5,5.684 8.041,4.784 C -1.244,7.143 0.898,3.541 0,0"
             style="fill:#00a4ff;fill-opacity:1;fill-rule:nonzero;stroke:none"
             id="path3383"
             inkscape:connector-curvature="0" /></g><g
           id="g3385"
           transform="translate(38.2676,30.6865)"><path
             d="m 0,0 c -1.611,-0.612 -2.826,-1.974 -3.25,-3.643 -0.715,-2.823 0.999,-5.705 3.822,-6.42 1.059,-0.268 2.156,-0.207 3.172,0.179 1.611,0.613 2.826,1.974 3.249,3.643 0.347,1.368 0.14,2.789 -0.58,4.003 C 5.691,-1.026 4.54,-0.168 3.171,0.181 2.114,0.449 1.017,0.386 0,0 m 4.69,-12.375 c -1.531,-0.582 -3.182,-0.674 -4.773,-0.271 -4.248,1.078 -6.828,5.411 -5.75,9.66 0.637,2.508 2.463,4.557 4.887,5.477 1.531,0.582 3.181,0.675 4.774,0.272 2.057,-0.522 3.789,-1.814 4.875,-3.64 1.086,-1.824 1.396,-3.962 0.874,-6.021 -0.636,-2.509 -2.464,-4.557 -4.887,-5.477"
             style="fill:#303030;fill-opacity:1;fill-rule:nonzero;stroke:none"
             id="path3387"
             inkscape:connector-curvature="0" /></g><g
           id="g3389"
           transform="translate(13.5962,12.5117)"><path
             d="M 0,0 C -2.618,2.549 -2.673,6.739 -0.125,9.357 2.426,11.973 6.615,12.03 9.231,9.481 11.85,6.931 11.904,2.742 9.355,0.124 6.807,-2.495 2.618,-2.549 0,0"
             style="fill:#4300d0;fill-opacity:1;fill-rule:nonzero;stroke:none"
             id="path3391"
             inkscape:connector-curvature="0" /></g><g
           id="g3393"
           transform="translate(23.4272,16.4023)"><path
             d="M 0,0 C 0.276,1.701 -0.295,3.435 -1.529,4.636 -3.616,6.668 -6.969,6.623 -9,4.536 -9.763,3.754 -10.257,2.773 -10.431,1.7 c -0.275,-1.702 0.296,-3.435 1.53,-4.636 1.01,-0.984 2.344,-1.516 3.755,-1.498 1.412,0.018 2.731,0.586 3.716,1.597 C -0.668,-2.054 -0.174,-1.072 0,0 m -13.062,2.126 c 0.262,1.616 1.006,3.093 2.152,4.269 3.058,3.14 8.099,3.207 11.241,0.151 1.854,-1.807 2.715,-4.413 2.3,-6.972 -0.261,-1.617 -1.006,-3.095 -2.152,-4.271 -1.481,-1.521 -3.466,-2.373 -5.59,-2.401 -2.121,-0.029 -4.129,0.771 -5.65,2.253 -1.855,1.806 -2.715,4.412 -2.301,6.971"
             style="fill:#303030;fill-opacity:1;fill-rule:nonzero;stroke:none"
             id="path3395"
             inkscape:connector-curvature="0" /></g><g
           id="g3397"
           transform="translate(16.3398,23.624)"><path
             d="M 0,0 C 3.516,0.992 7.171,-1.054 8.164,-4.57 9.156,-8.088 7.11,-11.743 3.593,-12.735 0.076,-13.727 -3.579,-11.681 -4.572,-8.164 -5.564,-4.648 -3.517,-0.991 0,0"
             style="fill:#424242;fill-opacity:1;fill-rule:nonzero;stroke:none"
             id="path3399"
             inkscape:connector-curvature="0" /></g><g
           id="g3401"
           transform="translate(14.7925,13.165)"><path
             d="M 0,0 C 1.336,-1.089 3.123,-1.461 4.778,-0.993 7.583,-0.202 9.22,2.723 8.429,5.525 8.132,6.577 7.529,7.497 6.687,8.185 5.352,9.272 3.564,9.646 1.909,9.177 0.55,8.794 -0.578,7.904 -1.267,6.672 -1.957,5.441 -2.125,4.015 -1.741,2.657 -1.445,1.605 -0.842,0.687 0,0 M 8.371,10.249 C 9.641,9.213 10.548,7.831 10.994,6.251 12.184,2.032 9.721,-2.367 5.503,-3.56 3.011,-4.262 0.324,-3.703 -1.685,-2.065 c -1.269,1.035 -2.176,2.418 -2.621,3.998 -0.578,2.044 -0.323,4.189 0.714,6.041 1.036,1.853 2.733,3.192 4.777,3.769 2.491,0.702 5.177,0.144 7.186,-1.494"
             style="fill:#303030;fill-opacity:1;fill-rule:nonzero;stroke:none"
             id="path3403"
             inkscape:connector-curvature="0" /></g><g
           id="g3405"
           transform="translate(20.0068,46.9063)"><path
             d="m 0,0 c 3.517,0.993 7.173,-1.055 8.165,-4.57 0.992,-3.518 -1.055,-7.172 -4.571,-8.165 -3.516,-0.993 -7.171,1.053 -8.165,4.57 C -5.562,-4.647 -3.517,-0.992 0,0"
             style="fill:#ff6100;fill-opacity:1;fill-rule:nonzero;stroke:none"
             id="path3407"
             inkscape:connector-curvature="0" /></g><g
           id="g3409"
           transform="translate(18.4609,36.4473)"><path
             d="M 0,0 C 1.335,-1.088 3.123,-1.461 4.778,-0.993 7.582,-0.203 9.22,2.722 8.428,5.525 8.132,6.578 7.529,7.497 6.687,8.184 5.351,9.271 3.564,9.645 1.909,9.177 0.55,8.794 -0.578,7.904 -1.267,6.673 -1.957,5.44 -2.125,4.015 -1.743,2.657 -1.446,1.606 -0.843,0.687 0,0 M 8.372,10.248 C 9.641,9.214 10.547,7.831 10.994,6.251 12.184,2.032 9.72,-2.367 5.502,-3.559 3.01,-4.261 0.324,-3.704 -1.686,-2.065 c -1.269,1.036 -2.175,2.417 -2.621,3.998 -0.577,2.044 -0.323,4.189 0.715,6.042 1.036,1.853 2.733,3.189 4.776,3.767 2.492,0.703 5.179,0.145 7.188,-1.494"
             style="fill:#303030;fill-opacity:1;fill-rule:nonzero;stroke:none"
             id="path3411"
             inkscape:connector-curvature="0" /></g><g
           id="g3413"
           transform="translate(38.4683,30.7598)"><path
             d="m 0,0 c -5.73,-0.562 -10.833,3.619 -11.396,9.35 l 2.689,0.263 C -8.293,5.396 -4.478,2.284 -0.263,2.698 L 0,0 Z"
             style="fill:#303030;fill-opacity:1;fill-rule:nonzero;stroke:none"
             id="path3415"
             inkscape:connector-curvature="0" /></g><g
           id="g3417"
           transform="translate(36.0396,18.9209)"><path
             d="m 0,0 c -3.858,1.749 -8.419,0.035 -10.167,-3.823 l -2.548,1.15 c 2.378,5.244 8.587,7.522 13.832,5.144 L 0,0 Z"
             style="fill:#303030;fill-opacity:1;fill-rule:nonzero;stroke:none"
             id="path3419"
             inkscape:connector-curvature="0" /></g><g
           id="g3421"
           transform="translate(15.9048,22.0479)"><path
             d="m 0,0 -1.57,2.193 c 3.444,2.466 4.243,7.305 1.778,10.748 l 2.209,1.574 C 5.77,9.834 4.682,3.354 0,0"
             style="fill:#303030;fill-opacity:1;fill-rule:nonzero;stroke:none"
             id="path3423"
             inkscape:connector-curvature="0" /></g></g></g></g></svg>
