<?xml version="1.0" encoding="UTF-8" standalone="no"?><svg xmlns="http://www.w3.org/2000/svg" xmlns:xlink="http://www.w3.org/1999/xlink" contentScriptType="application/ecmascript" contentStyleType="text/css" height="636px" preserveAspectRatio="none" style="width:709px;height:636px;" version="1.1" viewBox="0 0 709 636" width="709px" zoomAndPan="magnify"><defs><filter height="300%" id="fm4tpynz43ajb" width="300%" x="-1" y="-1"><feGaussianBlur result="blurOut" stdDeviation="2.0"/><feColorMatrix in="blurOut" result="blurOut2" type="matrix" values="0 0 0 0 0 0 0 0 0 0 0 0 0 0 0 0 0 0 .4 0"/><feOffset dx="4.0" dy="4.0" in="blurOut2" result="blurOut3"/><feBlend in="SourceGraphic" in2="blurOut3" mode="normal"/></filter></defs><g><!--cluster measurements.py--><polygon fill="#FFFFFF" filter="url(#fm4tpynz43ajb)" points="35,78,167,78,174,100.4883,514,100.4883,514,168,35,168,35,78" style="stroke: #000000; stroke-width: 1.5;"/><line style="stroke: #000000; stroke-width: 1.5;" x1="35" x2="174" y1="100.4883" y2="100.4883"/><text fill="#000000" font-family="sans-serif" font-size="14" font-weight="bold" lengthAdjust="spacingAndGlyphs" textLength="126" x="39" y="93.5352">measurements.py</text><!--cluster data_set.py--><polygon fill="#FFFFFF" filter="url(#fm4tpynz43ajb)" points="306,230,392,230,399,252.4883,402,252.4883,402,320,306,320,306,230" style="stroke: #000000; stroke-width: 1.5;"/><line style="stroke: #000000; stroke-width: 1.5;" x1="306" x2="399" y1="252.4883" y2="252.4883"/><text fill="#000000" font-family="sans-serif" font-size="14" font-weight="bold" lengthAdjust="spacingAndGlyphs" textLength="80" x="310" y="245.5352">data_set.py</text><!--cluster sqlite_base.py--><polygon fill="#FFFFFF" filter="url(#fm4tpynz43ajb)" points="377,367,484,367,491,389.4883,519,389.4883,519,457,377,457,377,367" style="stroke: #000000; stroke-width: 1.5;"/><line style="stroke: #000000; stroke-width: 1.5;" x1="377" x2="491" y1="389.4883" y2="389.4883"/><text fill="#000000" font-family="sans-serif" font-size="14" font-weight="bold" lengthAdjust="spacingAndGlyphs" textLength="101" x="381" y="382.5352">sqlite_base.py</text><!--cluster experiment_container.py--><polygon fill="#FFFFFF" filter="url(#fm4tpynz43ajb)" points="438,230,619,230,626,252.4883,629,252.4883,629,320,438,320,438,230" style="stroke: #000000; stroke-width: 1.5;"/><line style="stroke: #000000; stroke-width: 1.5;" x1="438" x2="626" y1="252.4883" y2="252.4883"/><text fill="#000000" font-family="sans-serif" font-size="14" font-weight="bold" lengthAdjust="spacingAndGlyphs" textLength="175" x="442" y="245.5352">experiment_container.py</text><!--cluster param_spec.py--><polygon fill="#FFFFFF" filter="url(#fm4tpynz43ajb)" points="14,230,124,230,131,252.4883,134,252.4883,134,320,14,320,14,230" style="stroke: #000000; stroke-width: 1.5;"/><line style="stroke: #000000; stroke-width: 1.5;" x1="14" x2="131" y1="252.4883" y2="252.4883"/><text fill="#000000" font-family="sans-serif" font-size="14" font-weight="bold" lengthAdjust="spacingAndGlyphs" textLength="104" x="18" y="245.5352">param_spec.py</text><!--cluster SQLite--><path d="M379,514 C379,504 448,504 448,504 C448,504 517,504 517,514 L517,614 C517,624 448,624 448,624 C448,624 379,624 379,614 L379,514 " fill="#FFFFFF" filter="url(#fm4tpynz43ajb)" style="stroke: #000000; stroke-width: 1.5;"/><path d="M379,514 C379,524 448,524 448,524 C448,524 517,524 517,514 " fill="none" style="stroke: #000000; stroke-width: 1.5;"/><text fill="#000000" font-family="sans-serif" font-size="14" font-weight="bold" lengthAdjust="spacingAndGlyphs" textLength="47" x="424.5" y="538.5352">SQLite</text><!--entity DataSaver--><rect fill="#FEFECE" filter="url(#fm4tpynz43ajb)" height="36.4883" style="stroke: #A80036; stroke-width: 1.5;" width="88" x="192" y="124"/><rect fill="#FEFECE" height="5" style="stroke: #A80036; stroke-width: 1.5;" width="10" x="187" y="129"/><rect fill="#FEFECE" height="5" style="stroke: #A80036; stroke-width: 1.5;" width="10" x="187" y="150.4883"/><text fill="#000000" font-family="sans-serif" font-size="14" lengthAdjust="spacingAndGlyphs" textLength="68" x="202" y="147.5352">DataSaver</text><!--entity Runner--><rect fill="#FEFECE" filter="url(#fm4tpynz43ajb)" height="36.4883" style="stroke: #A80036; stroke-width: 1.5;" width="70" x="436" y="124"/><rect fill="#FEFECE" height="5" style="stroke: #A80036; stroke-width: 1.5;" width="10" x="431" y="129"/><rect fill="#FEFECE" height="5" style="stroke: #A80036; stroke-width: 1.5;" width="10" x="431" y="150.4883"/><text fill="#000000" font-family="sans-serif" font-size="14" lengthAdjust="spacingAndGlyphs" textLength="50" x="446" y="147.5352">Runner</text><!--entity Measurement--><rect fill="#FEFECE" filter="url(#fm4tpynz43ajb)" height="36.4883" style="stroke: #A80036; stroke-width: 1.5;" width="113" x="43.5" y="124"/><rect fill="#FEFECE" height="5" style="stroke: #A80036; stroke-width: 1.5;" width="10" x="38.5" y="129"/><rect fill="#FEFECE" height="5" style="stroke: #A80036; stroke-width: 1.5;" width="10" x="38.5" y="150.4883"/><text fill="#000000" font-family="sans-serif" font-size="14" lengthAdjust="spacingAndGlyphs" textLength="93" x="53.5" y="147.5352">Measurement</text><!--entity DataSet--><rect fill="#FEFECE" filter="url(#fm4tpynz43ajb)" height="36.4883" style="stroke: #A80036; stroke-width: 1.5;" width="72" x="318" y="276"/><rect fill="#FEFECE" height="5" style="stroke: #A80036; stroke-width: 1.5;" width="10" x="313" y="281"/><rect fill="#FEFECE" height="5" style="stroke: #A80036; stroke-width: 1.5;" width="10" x="313" y="302.4883"/><text fill="#000000" font-family="sans-serif" font-size="14" lengthAdjust="spacingAndGlyphs" textLength="52" x="328" y="299.5352">DataSet</text><!--entity sqlite functions--><rect fill="#FEFECE" filter="url(#fm4tpynz43ajb)" height="36.4883" style="stroke: #A80036; stroke-width: 1.5;" width="125" x="385.5" y="413"/><rect fill="#FEFECE" height="5" style="stroke: #A80036; stroke-width: 1.5;" width="10" x="380.5" y="418"/><rect fill="#FEFECE" height="5" style="stroke: #A80036; stroke-width: 1.5;" width="10" x="380.5" y="439.4883"/><text fill="#000000" font-family="sans-serif" font-size="14" lengthAdjust="spacingAndGlyphs" textLength="105" x="395.5" y="436.5352">sqlite functions</text><!--entity Experiment--><rect fill="#FEFECE" filter="url(#fm4tpynz43ajb)" height="36.4883" style="stroke: #A80036; stroke-width: 1.5;" width="99" x="503.5" y="276"/><rect fill="#FEFECE" height="5" style="stroke: #A80036; stroke-width: 1.5;" width="10" x="498.5" y="281"/><rect fill="#FEFECE" height="5" style="stroke: #A80036; stroke-width: 1.5;" width="10" x="498.5" y="302.4883"/><text fill="#000000" font-family="sans-serif" font-size="14" lengthAdjust="spacingAndGlyphs" textLength="79" x="513.5" y="299.5352">Experiment</text><!--entity ParamSpec--><rect fill="#FEFECE" filter="url(#fm4tpynz43ajb)" height="36.4883" style="stroke: #A80036; stroke-width: 1.5;" width="95" x="26.5" y="276"/><rect fill="#FEFECE" height="5" style="stroke: #A80036; stroke-width: 1.5;" width="10" x="21.5" y="281"/><rect fill="#FEFECE" height="5" style="stroke: #A80036; stroke-width: 1.5;" width="10" x="21.5" y="302.4883"/><text fill="#000000" font-family="sans-serif" font-size="14" lengthAdjust="spacingAndGlyphs" textLength="75" x="36.5" y="299.5352">ParamSpec</text><!--entity experiment.db--><rect fill="#FEFECE" filter="url(#fm4tpynz43ajb)" height="36.4883" style="stroke: #A80036; stroke-width: 1.5;" width="121" x="387.5" y="580"/><rect fill="#FEFECE" height="5" style="stroke: #A80036; stroke-width: 1.5;" width="10" x="382.5" y="585"/><rect fill="#FEFECE" height="5" style="stroke: #A80036; stroke-width: 1.5;" width="10" x="382.5" y="606.4883"/><text fill="#000000" font-family="sans-serif" font-size="14" lengthAdjust="spacingAndGlyphs" textLength="101" x="397.5" y="603.5352">experiment.db</text><!--link Measurement to Runner--><path d="M114.987,123.9778 C128.6649,108.9043 150.3112,88.2669 174,78 C211.7974,61.6184 342.8269,66.708 361,72 C393.3963,81.4338 425.3604,103.6146 446.4118,120.4994 " fill="none" id="Measurement-Runner" style="stroke: #A80036; stroke-width: 1.0;"/><polygon fill="#A80036" points="450.4735,123.8004,446.012,115.02,446.5933,120.6469,440.9664,121.2283,450.4735,123.8004" style="stroke: #A80036; stroke-width: 1.0;"/><text fill="#000000" font-family="sans-serif" font-size="13" lengthAdjust="spacingAndGlyphs" textLength="128" x="232" y="66.5684">Calling 'run' creates:</text><!--link Measurement to ParamSpec--><path d="M84.5915,160.3607 C78.4685,168.8234 72.1422,179.343 69,190 C61.049,216.9667 64.6047,249.5539 68.6203,270.9785 " fill="none" id="Measurement-ParamSpec" style="stroke: #A80036; stroke-width: 1.0;"/><polygon fill="#A80036" points="69.5892,275.9074,71.7779,266.3048,68.6246,271.0013,63.9281,267.8481,69.5892,275.9074" style="stroke: #A80036; stroke-width: 1.0;"/><text fill="#000000" font-family="sans-serif" font-size="13" lengthAdjust="spacingAndGlyphs" textLength="143" x="70" y="211.0684">Registers instances of:</text><!--link Runner to DataSet--><path d="M435.8479,155.3066 C419.286,163.1589 400.4743,174.6126 388,190 C368.9515,213.4968 360.4452,248.0003 356.7362,270.7271 " fill="none" id="Runner-DataSet" style="stroke: #A80036; stroke-width: 1.0;"/><polygon fill="#A80036" points="355.9337,275.9543,361.2531,267.6655,356.6924,271.0122,353.3457,266.4516,355.9337,275.9543" style="stroke: #A80036; stroke-width: 1.0;"/><text fill="#000000" font-family="sans-serif" font-size="13" lengthAdjust="spacingAndGlyphs" textLength="119" x="389" y="203.5684">'__enter__' creates:</text><text fill="#000000" font-family="sans-serif" font-size="13" lengthAdjust="spacingAndGlyphs" textLength="112" x="392.5" y="218.8789">'__exit__' flushes:</text><!--link Runner to DataSaver--><path d="M435.8082,142 C395.8447,142 330.3594,142 285.3159,142 " fill="none" id="Runner-DataSaver" style="stroke: #A80036; stroke-width: 1.0;"/><polygon fill="#A80036" points="280.2017,142,289.2017,146,285.2017,142,289.2017,138,280.2017,142" style="stroke: #A80036; stroke-width: 1.0;"/><text fill="#000000" font-family="sans-serif" font-size="13" lengthAdjust="spacingAndGlyphs" textLength="119" x="298.5" y="135.5684">'__enter__' returns:</text><!--link Runner to Experiment--><path d="M491.89,160.007 C500.6101,168.4041 510.2576,178.9703 517,190 C532.5915,215.5057 542.5718,248.681 547.9759,270.6244 " fill="none" id="Runner-Experiment" style="stroke: #A80036; stroke-width: 1.0;"/><polygon fill="#A80036" points="549.1879,275.6756,550.9774,265.9907,548.0212,270.8136,543.1982,267.8574,549.1879,275.6756" style="stroke: #A80036; stroke-width: 1.0;"/><text fill="#000000" font-family="sans-serif" font-size="13" lengthAdjust="spacingAndGlyphs" textLength="165" x="532" y="211.0684">Creats DataSet with ref to:</text><!--link DataSaver to DataSet--><path d="M239.3318,160.1811 C243.1396,177.3305 250.645,203.1486 264,222 C278.5176,242.4925 300.4326,260.1974 319.0023,272.9224 " fill="none" id="DataSaver-DataSet" style="stroke: #A80036; stroke-width: 1.0;"/><polygon fill="#A80036" points="323.1535,275.7232,317.9301,267.3736,319.0087,272.9267,313.4556,274.0053,323.1535,275.7232" style="stroke: #A80036; stroke-width: 1.0;"/><text fill="#000000" font-family="sans-serif" font-size="13" lengthAdjust="spacingAndGlyphs" textLength="96" x="265" y="211.0684">Stores data via:</text><!--link DataSet to ParamSpec--><path d="M317.957,294 C269.5143,294 183.0393,294 127.1286,294 " fill="none" id="DataSet-ParamSpec" style="stroke: #A80036; stroke-width: 1.0;"/><polygon fill="#A80036" points="121.8156,294,130.8156,298,126.8156,294,130.8156,290,121.8156,294" style="stroke: #A80036; stroke-width: 1.0;"/><text fill="#000000" font-family="sans-serif" font-size="13" lengthAdjust="spacingAndGlyphs" textLength="122" x="158.75" y="287.5684">Holds instances of:</text><!--link DataSet to sqlite functions--><path d="M353.8381,312.1876 C354.4551,325.8615 356.9264,344.6319 365,359 C376.6299,379.6969 396.5681,397.2866 413.988,409.8989 " fill="none" id="DataSet-sqlite functions" style="stroke: #A80036; stroke-width: 1.0;"/><polygon fill="#A80036" points="418.3559,412.997,413.3292,404.5275,414.2776,410.1043,408.7009,411.0528,418.3559,412.997" style="stroke: #A80036; stroke-width: 1.0;"/><text fill="#000000" font-family="sans-serif" font-size="13" lengthAdjust="spacingAndGlyphs" textLength="124" x="366" y="355.5684">Inserts data into DB</text><!--link Experiment to sqlite functions--><path d="M539.0568,312.1925 C519.9939,337.0651 485.8158,381.6594 465.1904,408.5707 " fill="none" id="Experiment-sqlite functions" style="stroke: #A80036; stroke-width: 1.0;"/><polygon fill="#A80036" points="462.0009,412.7322,470.6507,408.0224,465.0426,408.7638,464.3012,403.1557,462.0009,412.7322" style="stroke: #A80036; stroke-width: 1.0;"/><text fill="#000000" font-family="sans-serif" font-size="13" lengthAdjust="spacingAndGlyphs" textLength="166" x="517" y="355.5684">Creates experiments in DB</text><!--link sqlite functions to experiment.db--><path d="M448,449.1898 C448,479.6824 448,541.0682 448,574.6848 " fill="none" id="sqlite functions-experiment.db" style="stroke: #A80036; stroke-width: 1.0;"/><polygon fill="#A80036" points="448,579.8326,452,570.8326,448,574.8326,444,570.8326,448,579.8326" style="stroke: #A80036; stroke-width: 1.0;"/><text fill="#000000" font-family="sans-serif" font-size="13" lengthAdjust="spacingAndGlyphs" textLength="57" x="449" y="492.5684">SQL calls</text><!--
@startuml

package "measurements.py" {
    [DataSaver]
    [Runner]
    [Measurement]
}
package "data_set.py" {
    [DataSet]
}
package "sqlite_base.py" {
    [sqlite functions]
}

package "experiment_container.py" {
    [Experiment]
}

package "param_spec.py" {
    [ParamSpec]
}

database "SQLite" {
    [experiment.db]
}

[Measurement] -> [Runner] : Calling 'run' creates:
[Measurement] - -> [ParamSpec] : Registers instances of:
[Runner] - -> [DataSet] : '~__enter~__' creates:\n'~__exit~__' flushes:
[Runner] -> [DataSaver] : '~__enter__' returns:
[Runner] - -> [Experiment] : Creats DataSet with ref to:
[DataSaver] - -> [DataSet] : Stores data via:
[DataSet] -> [ParamSpec] : Holds instances of:
[DataSet] - -> [sqlite functions] : Inserts data into DB
[Experiment] - -> [sqlite functions] : Creates experiments in DB
[sqlite functions] - -> [experiment.db] : SQL calls


@enduml

PlantUML version 1.2018.01(Sun Jan 28 19:08:22 CET 2018)
(GPL source distribution)
Java Runtime: Java(TM) SE Runtime Environment
JVM: Java HotSpot(TM) 64-Bit Server VM
Java Version: 1.8.0_131-b11
Operating System: Mac OS X
OS Version: 10.13.3
Default Encoding: UTF-8
Language: en
Country: GB
--></g></svg>
