<?xml version="1.0" encoding="UTF-8" standalone="no"?><svg xmlns="http://www.w3.org/2000/svg" xmlns:xlink="http://www.w3.org/1999/xlink" contentScriptType="application/ecmascript" contentStyleType="text/css" height="114px" preserveAspectRatio="none" style="width:1048px;height:114px;" version="1.1" viewBox="0 0 1048 114" width="1048px" zoomAndPan="magnify"><defs><filter height="300%" id="f2lze0yk53l1i" width="300%" x="-1" y="-1"><feGaussianBlur result="blurOut" stdDeviation="2.0"/><feColorMatrix in="blurOut" result="blurOut2" type="matrix" values="0 0 0 0 0 0 0 0 0 0 0 0 0 0 0 0 0 0 .4 0"/><feOffset dx="4.0" dy="4.0" in="blurOut2" result="blurOut3"/><feBlend in="SourceGraphic" in2="blurOut3" mode="normal"/></filter></defs><g><!--cluster measurements.py--><polygon fill="#FFFFFF" filter="url(#f2lze0yk53l1i)" points="14,31,146,31,153,53.4883,612,53.4883,612,102,14,102,14,31" style="stroke: #000000; stroke-width: 1.5;"/><line style="stroke: #000000; stroke-width: 1.5;" x1="14" x2="153" y1="53.4883" y2="53.4883"/><text fill="#000000" font-family="sans-serif" font-size="14" font-weight="bold" lengthAdjust="spacingAndGlyphs" textLength="126" x="18" y="46.5352">measurements.py</text><!--cluster data_set.py--><polygon fill="#FFFFFF" filter="url(#f2lze0yk53l1i)" points="627,31,713,31,720,53.4883,723,53.4883,723,102,627,102,627,31" style="stroke: #000000; stroke-width: 1.5;"/><line style="stroke: #000000; stroke-width: 1.5;" x1="627" x2="720" y1="53.4883" y2="53.4883"/><text fill="#000000" font-family="sans-serif" font-size="14" font-weight="bold" lengthAdjust="spacingAndGlyphs" textLength="80" x="631" y="46.5352">data_set.py</text><!--cluster sqlite_base.py--><polygon fill="#FFFFFF" filter="url(#f2lze0yk53l1i)" points="738,31,845,31,852,53.4883,880,53.4883,880,102,738,102,738,31" style="stroke: #000000; stroke-width: 1.5;"/><line style="stroke: #000000; stroke-width: 1.5;" x1="738" x2="852" y1="53.4883" y2="53.4883"/><text fill="#000000" font-family="sans-serif" font-size="14" font-weight="bold" lengthAdjust="spacingAndGlyphs" textLength="101" x="742" y="46.5352">sqlite_base.py</text><!--cluster SQLite--><path d="M898,26 C898,16 967,16 967,16 C967,16 1036,16 1036,26 L1036,92 C1036,102 967,102 967,102 C967,102 898,102 898,92 L898,26 " fill="#FFFFFF" filter="url(#f2lze0yk53l1i)" style="stroke: #000000; stroke-width: 1.5;"/><path d="M898,26 C898,36 967,36 967,36 C967,36 1036,36 1036,26 " fill="none" style="stroke: #000000; stroke-width: 1.5;"/><text fill="#000000" font-family="sans-serif" font-size="14" font-weight="bold" lengthAdjust="spacingAndGlyphs" textLength="47" x="943.5" y="50.5352">SQLite</text><!--entity DataSaver--><rect fill="#FEFECE" filter="url(#f2lze0yk53l1i)" height="36.4883" style="stroke: #A80036; stroke-width: 1.5;" width="88" x="516" y="58"/><rect fill="#FEFECE" height="5" style="stroke: #A80036; stroke-width: 1.5;" width="10" x="511" y="63"/><rect fill="#FEFECE" height="5" style="stroke: #A80036; stroke-width: 1.5;" width="10" x="511" y="84.4883"/><text fill="#000000" font-family="sans-serif" font-size="14" lengthAdjust="spacingAndGlyphs" textLength="68" x="526" y="81.5352">DataSaver</text><!--entity Runner--><rect fill="#FEFECE" filter="url(#f2lze0yk53l1i)" height="36.4883" style="stroke: #A80036; stroke-width: 1.5;" width="70" x="294" y="58"/><rect fill="#FEFECE" height="5" style="stroke: #A80036; stroke-width: 1.5;" width="10" x="289" y="63"/><rect fill="#FEFECE" height="5" style="stroke: #A80036; stroke-width: 1.5;" width="10" x="289" y="84.4883"/><text fill="#000000" font-family="sans-serif" font-size="14" lengthAdjust="spacingAndGlyphs" textLength="50" x="304" y="81.5352">Runner</text><!--entity Measurement--><rect fill="#FEFECE" filter="url(#f2lze0yk53l1i)" height="36.4883" style="stroke: #A80036; stroke-width: 1.5;" width="113" x="22.5" y="58"/><rect fill="#FEFECE" height="5" style="stroke: #A80036; stroke-width: 1.5;" width="10" x="17.5" y="63"/><rect fill="#FEFECE" height="5" style="stroke: #A80036; stroke-width: 1.5;" width="10" x="17.5" y="84.4883"/><text fill="#000000" font-family="sans-serif" font-size="14" lengthAdjust="spacingAndGlyphs" textLength="93" x="32.5" y="81.5352">Measurement</text><!--entity DataSet--><rect fill="#FEFECE" filter="url(#f2lze0yk53l1i)" height="36.4883" style="stroke: #A80036; stroke-width: 1.5;" width="72" x="639" y="58"/><rect fill="#FEFECE" height="5" style="stroke: #A80036; stroke-width: 1.5;" width="10" x="634" y="63"/><rect fill="#FEFECE" height="5" style="stroke: #A80036; stroke-width: 1.5;" width="10" x="634" y="84.4883"/><text fill="#000000" font-family="sans-serif" font-size="14" lengthAdjust="spacingAndGlyphs" textLength="52" x="649" y="81.5352">DataSet</text><!--entity sqlite functions--><rect fill="#FEFECE" filter="url(#f2lze0yk53l1i)" height="36.4883" style="stroke: #A80036; stroke-width: 1.5;" width="125" x="746.5" y="58"/><rect fill="#FEFECE" height="5" style="stroke: #A80036; stroke-width: 1.5;" width="10" x="741.5" y="63"/><rect fill="#FEFECE" height="5" style="stroke: #A80036; stroke-width: 1.5;" width="10" x="741.5" y="84.4883"/><text fill="#000000" font-family="sans-serif" font-size="14" lengthAdjust="spacingAndGlyphs" textLength="105" x="756.5" y="81.5352">sqlite functions</text><!--entity experiment.db--><rect fill="#FEFECE" filter="url(#f2lze0yk53l1i)" height="36.4883" style="stroke: #A80036; stroke-width: 1.5;" width="121" x="906.5" y="58"/><rect fill="#FEFECE" height="5" style="stroke: #A80036; stroke-width: 1.5;" width="10" x="901.5" y="63"/><rect fill="#FEFECE" height="5" style="stroke: #A80036; stroke-width: 1.5;" width="10" x="901.5" y="84.4883"/><text fill="#000000" font-family="sans-serif" font-size="14" lengthAdjust="spacingAndGlyphs" textLength="101" x="916.5" y="81.5352">experiment.db</text><!--link Measurement to Runner--><path d="M135.7289,76 C182.287,76 247.0729,76 288.5259,76 " fill="none" id="Measurement-Runner" style="stroke: #A80036; stroke-width: 1.0;"/><polygon fill="#A80036" points="293.7134,76,284.7134,72,288.7134,76,284.7134,80,293.7134,76" style="stroke: #A80036; stroke-width: 1.0;"/><text fill="#000000" font-family="sans-serif" font-size="13" lengthAdjust="spacingAndGlyphs" textLength="122" x="153.75" y="69.5684">calling 'run' creates</text><!--link Runner to DataSaver--><path d="M364.0839,76 C403.2167,76 466.7992,76 510.8691,76 " fill="none" id="Runner-DataSaver" style="stroke: #A80036; stroke-width: 1.0;"/><polygon fill="#A80036" points="515.8749,76,506.8749,72,510.8749,76,506.8749,80,515.8749,76" style="stroke: #A80036; stroke-width: 1.0;"/><text fill="#000000" font-family="sans-serif" font-size="13" lengthAdjust="spacingAndGlyphs" textLength="115" x="382.5" y="69.5684">'__enter__' returns</text><!--link DataSaver to DataSet--><path d="M604.0234,88.7584 C613.9395,89.8497 623.8556,89.7366 633.7717,88.4189 " fill="none" id="DataSaver-DataSet" style="stroke: #A80036; stroke-width: 1.0;"/><polygon fill="#A80036" points="638.9572,87.6201,629.453,85.0373,634.0155,88.3815,630.6713,92.944,638.9572,87.6201" style="stroke: #A80036; stroke-width: 1.0;"/><!--link DataSet to sqlite functions--><path d="M711.1172,76 C721.1022,76 731.0873,76 741.0723,76 " fill="none" id="DataSet-sqlite functions" style="stroke: #A80036; stroke-width: 1.0;"/><polygon fill="#A80036" points="746.2938,76,737.2938,72,741.2938,76,737.2938,80,746.2938,76" style="stroke: #A80036; stroke-width: 1.0;"/><!--link sqlite functions to experiment.db--><path d="M871.6445,76 C881.4775,76 891.3104,76 901.1434,76 " fill="none" id="sqlite functions-experiment.db" style="stroke: #A80036; stroke-width: 1.0;"/><polygon fill="#A80036" points="906.2854,76,897.2854,72,901.2854,76,897.2854,80,906.2854,76" style="stroke: #A80036; stroke-width: 1.0;"/><!--
@startuml

package "measurements.py" {
    [DataSaver]
    [Runner]
    [Measurement]
}
package "data_set.py" {
    [DataSet]
}
package "sqlite_base.py" {
    [sqlite functions]
}
database "SQLite" {
    [experiment.db]
}

[Measurement] -> [Runner] : calling 'run' creates
[Runner] -> [DataSaver] : '~__enter__' returns
[DataSaver] -> [DataSet]
[DataSet] -> [sqlite functions]
[sqlite functions] -> [experiment.db]

@enduml

PlantUML version 1.2018.01(Sun Jan 28 19:08:22 CET 2018)
(GPL source distribution)
Java Runtime: Java(TM) SE Runtime Environment
JVM: Java HotSpot(TM) 64-Bit Server VM
Java Version: 1.8.0_131-b11
Operating System: Mac OS X
OS Version: 10.13.3
Default Encoding: UTF-8
Language: en
Country: GB
--></g></svg>